PathFileType   4   (X/Y/Z)
DataRate	CameraRate	NumFrames	NumMarkers	Units	OrigDataRate	OrigDataStartFrame	OrigNumFrames
120.0	120.0	8	37	mm	120.0	28	111
Frame#	Time	midhip	hip_r	hip_l	knee_r	knee_l	ankle_r	ankle_l	midasis	asis_r	asis_l	psis_r	psis_l	epicondLat_r	epicondLat_l	epicondMed_r	epicondMed_l	malleolusLat_r	malleolusLat_l	malleolusMedv_r	malleolusMedv_l	neck	subclavicle_r	subclavicle_l	sternalnotch	xyphoidprocess	thighwand_r	thighwand_l	upperleg1_r	upperleg1_l	upperleg2_r	upperleg2_l	shankwand_r	shankwand_l	lowerleg1_r	lowerleg1_l	toe_r	toe_l
 	 	X1	Y1	Z1	X2	Y2	Z2	X3	Y3	Z3	X4	Y4	Z4	X5	Y5	Z5	X6	Y6	Z6	X7	Y7	Z7	X8	Y8	Z8	X9	Y9	Z9	X10	Y10	Z10	X11	Y11	Z11	X12	Y12	Z12	X13	Y13	Z13	X14	Y14	Z14	X15	Y15	Z15	X16	Y16	Z16	X17	Y17	Z17	X18	Y18	Z18	X19	Y19	Z19	X20	Y20	Z20	X21	Y21	Z21	X22	Y22	Z22	X23	Y23	Z23	X24	Y24	Z24	X25	Y25	Z25	X26	Y26	Z26	X27	Y27	Z27	X28	Y28	Z28	X29	Y29	Z29	X30	Y30	Z30	X31	Y31	Z31	X32	Y32	Z32	X33	Y33	Z33	X34	Y34	Z34	X35	Y35	Z35	X36	Y36	Z36	X37	Y37	Z37

	28	0.31667	965.023	624.592	-305.691	970.745	635.503	-252.000	972.811	637.930	-369.402	1090.666	358.019	-216.755	930.605	342.117	-337.843	1006.308	81.552	-220.815	867.203	58.868	-328.748	1015.435	699.084	-308.644	1013.883	697.261	-220.454	1016.987	700.906	-396.834	878.255	715.225	-263.483	877.971	715.291	-349.115	1079.749	358.975	-172.080	931.989	336.831	-385.531	1104.868	357.173	-255.524	917.320	350.659	-300.300	994.585	84.670	-189.588	860.061	59.448	-360.448	1018.074	82.300	-245.920	862.609	60.843	-295.337	940.837	1037.819	-314.430	1023.383	964.105	-261.356	1032.549	966.144	-350.350	1013.308	978.521	-299.241	1048.618	841.288	-303.974	1176.873	488.624	-225.584	1011.637	406.213	-445.005	1084.993	510.970	-191.975	1007.204	469.624	-368.740	1109.250	426.661	-184.825	985.969	389.439	-344.497	1025.517	155.406	-116.876	979.172	148.386	-302.779	1047.194	218.469	-174.671	932.351	211.620	-329.842	1082.629	49.111	-191.389	949.499	36.331	-321.876
	29	0.32500	973.608	623.705	-304.221	979.421	634.592	-250.583	981.417	637.071	-367.985	1102.015	357.968	-217.044	933.014	342.475	-337.667	1034.173	75.696	-215.520	867.515	59.417	-328.671	1023.983	698.263	-307.225	1022.483	696.401	-219.009	1025.484	700.126	-395.442	887.011	714.018	-261.845	886.285	714.434	-347.546	1089.900	357.980	-172.668	933.971	337.406	-385.389	1115.746	356.957	-256.000	920.647	351.024	-299.875	1022.239	78.732	-184.365	860.235	60.096	-360.338	1045.316	76.516	-240.712	862.933	61.561	-295.181	950.142	1036.814	-313.302	1032.515	962.761	-260.423	1041.629	965.010	-349.398	1022.510	977.302	-298.246	1057.409	839.992	-303.370	1185.698	488.495	-221.212	1014.766	405.737	-445.039	1092.216	509.266	-190.140	1011.650	468.754	-368.960	1116.875	424.994	-183.785	989.475	388.865	-344.611	1048.839	152.965	-113.341	980.223	148.442	-303.135	1066.125	215.813	-172.479	933.528	212.005	-329.789	1112.467	48.296	-186.636	949.636	36.308	-321.875
	30	0.33333	982.217	622.652	-302.869	988.140	633.449	-249.242	990.094	636.093	-366.640	1112.719	357.523	-217.496	935.731	342.830	-337.525	1062.213	70.701	-210.548	867.857	60.014	-328.602	1032.593	697.262	-305.809	1031.124	695.274	-217.553	1034.063	699.250	-394.066	895.851	712.593	-260.341	894.682	713.451	-346.009	1099.586	356.665	-173.419	936.093	338.021	-385.282	1125.823	355.999	-256.449	924.727	350.868	-299.478	1050.052	73.595	-179.468	860.432	60.798	-360.233	1072.922	71.535	-235.669	863.269	62.291	-295.035	959.482	1035.576	-312.106	1041.876	961.300	-259.531	1050.673	963.635	-348.372	1031.760	975.887	-297.237	1066.371	838.533	-302.629	1194.028	487.616	-217.571	1017.721	405.272	-445.304	1099.166	506.921	-188.569	1015.714	467.970	-369.660	1124.185	422.655	-182.985	993.275	388.224	-345.034	1071.957	151.046	-110.071	981.358	148.475	-303.539	1084.736	213.485	-170.567	934.893	212.605	-329.762	1142.178	48.202	-182.119	949.765	36.300	-321.890
	31	0.34167	990.980	621.409	-301.697	996.928	632.086	-247.989	998.852	634.978	-365.382	1122.781	356.623	-218.058	938.757	343.140	-337.425	1090.241	66.666	-206.060	868.240	60.648	-328.554	1041.292	696.070	-304.434	1039.844	693.895	-216.129	1042.739	698.246	-392.738	904.791	710.968	-259.004	903.187	712.343	-344.511	1108.902	355.044	-174.230	938.411	338.634	-385.212	1134.850	354.728	-257.821	928.706	350.959	-299.359	1077.884	69.336	-175.037	860.667	61.546	-360.146	1100.831	67.569	-230.902	863.631	63.068	-294.946	968.833	1034.158	-310.896	1051.220	959.606	-258.544	1060.021	962.149	-347.441	1041.066	974.286	-296.205	1075.580	836.918	-301.974	1201.967	486.025	-214.965	1020.634	404.811	-445.739	1105.857	504.009	-187.265	1020.795	467.035	-369.896	1131.144	419.693	-182.952	997.226	387.418	-345.618	1094.862	149.602	-107.134	982.593	148.440	-303.996	1103.016	211.597	-168.961	935.524	213.137	-329.847	1171.609	48.902	-177.971	949.888	36.304	-321.924
	32	0.35000	999.994	619.949	-300.721	1005.813	630.521	-246.831	1007.701	633.707	-364.217	1132.215	355.216	-218.663	942.096	343.364	-337.370	1118.045	63.626	-202.209	868.676	61.308	-328.540	1050.104	694.685	-303.128	1048.682	692.287	-214.773	1051.525	697.084	-391.483	913.828	709.169	-257.835	911.812	711.110	-343.061	1117.952	353.137	-174.980	940.989	339.194	-385.176	1142.896	352.961	-259.872	932.763	351.160	-299.189	1105.569	65.981	-171.208	860.955	62.330	-360.093	1128.926	64.829	-226.553	864.116	63.928	-294.896	978.218	1032.585	-309.629	1060.532	957.659	-257.492	1069.193	960.369	-346.455	1050.435	972.509	-295.137	1084.489	834.999	-301.253	1209.636	483.802	-213.650	1023.642	404.331	-446.273	1112.429	500.588	-186.517	1026.537	465.745	-369.918	1137.890	416.268	-183.667	1001.378	386.470	-346.211	1117.519	148.569	-104.596	983.942	148.297	-304.503	1121.120	210.179	-167.611	935.501	213.452	-330.224	1200.567	50.457	-174.342	950.013	36.315	-321.975
	33	0.35833	1009.076	618.304	-299.826	1014.822	628.777	-245.761	1016.645	632.270	-363.140	1141.064	353.275	-219.240	945.759	343.462	-337.354	1145.390	61.552	-199.121	869.172	61.985	-328.576	1059.045	693.114	-301.916	1057.671	690.484	-213.511	1060.418	695.745	-390.320	922.958	707.221	-256.813	920.568	709.745	-341.666	1126.853	350.968	-175.551	943.891	339.652	-385.166	1150.284	350.540	-261.954	937.214	351.065	-298.936	1132.903	63.506	-168.097	861.307	63.142	-360.089	1156.793	63.254	-222.889	864.673	64.795	-294.884	987.674	1030.847	-308.286	1070.028	955.576	-256.474	1078.334	958.359	-345.375	1059.875	970.577	-294.022	1093.455	832.896	-300.421	1217.158	481.059	-213.786	1026.885	403.798	-446.835	1119.160	496.923	-186.456	1032.174	464.255	-370.065	1144.859	412.684	-184.812	1005.795	385.511	-346.810	1139.849	147.867	-102.507	985.409	148.010	-305.046	1139.119	208.947	-166.481	936.626	213.662	-330.693	1228.829	52.898	-171.387	950.146	36.327	-322.043
	34	0.36667	1018.176	616.498	-298.982	1023.972	626.887	-244.765	1025.682	630.664	-362.137	1149.383	350.811	-219.719	949.756	343.405	-337.359	1172.036	60.356	-196.877	869.725	62.672	-328.669	1068.121	691.374	-300.806	1066.832	688.527	-212.358	1069.409	694.220	-389.253	932.161	705.160	-255.885	929.458	708.238	-340.327	1135.701	348.576	-175.858	947.177	339.963	-385.165	1156.414	347.505	-263.699	942.019	350.635	-298.743	1159.653	61.835	-165.785	861.738	63.975	-360.146	1183.855	62.682	-220.269	865.278	65.628	-294.952	997.215	1028.927	-306.893	1079.676	953.453	-255.410	1087.750	956.263	-344.331	1069.391	968.519	-292.854	1102.806	830.758	-299.471	1224.646	477.928	-215.398	1030.489	403.168	-447.356	1126.221	493.436	-186.997	1037.838	462.749	-370.232	1151.851	409.209	-186.132	1010.481	384.419	-347.374	1161.712	147.412	-100.901	986.988	147.552	-305.584	1156.824	207.716	-165.486	938.908	213.801	-331.091	1256.153	56.191	-169.234	950.293	36.336	-322.125
	35	0.37500	1027.351	614.569	-298.188	1033.275	624.885	-243.817	1034.807	628.898	-361.184	1157.251	347.889	-220.043	954.097	343.178	-337.361	1197.752	59.907	-195.493	870.331	63.370	-328.824	1077.330	689.490	-299.795	1076.175	686.465	-211.318	1078.485	692.515	-388.273	941.437	703.026	-254.991	938.476	706.583	-339.040	1144.579	346.009	-175.863	950.898	340.096	-385.155	1161.023	343.934	-264.767	947.671	349.972	-298.450	1185.570	60.853	-164.301	862.258	64.828	-360.272	1209.772	62.985	-218.728	865.923	66.457	-295.077	1006.881	1026.903	-305.396	1089.336	951.207	-254.209	1097.198	954.029	-343.213	1078.984	966.367	-291.623	1112.084	828.476	-298.399	1232.190	474.552	-218.361	1034.561	402.395	-447.780	1134.012	490.376	-187.975	1043.935	461.379	-370.675	1158.877	406.051	-187.376	1015.767	383.068	-347.914	1182.913	147.111	-99.783	988.666	146.912	-306.064	1174.136	206.554	-164.603	941.431	213.811	-331.439	1282.313	60.217	-167.971	950.456	36.342	-322.222
